<?xml version="1.0" encoding="utf-8"?>
<!-- Generator: Adobe Illustrator 25.1.0, SVG Export Plug-In . SVG Version: 6.00 Build 0)  -->
<svg version="1.1" id="Layer_1" xmlns="http://www.w3.org/2000/svg" xmlns:xlink="http://www.w3.org/1999/xlink" x="0px" y="0px"
	 viewBox="0 0 512 408" style="enable-background:new 0 0 512 408;" xml:space="preserve">
<style type="text/css">
	.st0{fill:#B54040;}
	.st1{fill:#FCFCFC;}
	.st2{font-family:'UtopiaStd-BlackHeadline';}
	.st3{font-size:125.0901px;}
</style>
<path class="st0" d="M424.4,327.8c0.7,23.1-17.4,44.3-41.8,44.1l-249.1-1.5c-24.3-0.1-42.2-21.5-41.2-44.6c0.9-22.2,0.1-50.9-7-74.4
	C78.2,228,66.1,213.1,46.1,211l0.1-21.6c20-1.8,32.4-16.6,39.7-40c7.4-23.4,8.5-52.1,7.9-74.3C93.2,52,111.3,30.9,135.6,31
	l249.1,1.5c24.3,0.1,42.2,21.5,41.2,44.6c-0.9,22.2-0.1,50.9,7,74.4c7.1,23.5,19.3,38.5,39.3,40.5l-0.1,21.6
	c-20,1.8-32.4,16.6-39.8,40C424.9,277,423.7,305.7,424.4,327.8z"/>
<text transform="matrix(1 0 0 1 139.4795 242.571)" class="st1 st2 st3">N5N</text>
</svg>
